<mxfile host="app.diagrams.net" agent="Mozilla/5.0 (Macintosh; Intel Mac OS X 10_15_7) AppleWebKit/605.1.15 (KHTML, like Gecko) Version/18.1.1 Safari/605.1.15" version="25.0.3">
  <diagram name="Page-1" id="btFddj9u0zUwPqEDD4T_">
    <mxGraphModel dx="842" dy="543" grid="1" gridSize="10" guides="1" tooltips="1" connect="1" arrows="1" fold="1" page="1" pageScale="1" pageWidth="827" pageHeight="1169" math="0" shadow="0">
      <root>
        <mxCell id="0" />
        <mxCell id="1" parent="0" />
        <mxCell id="urpMWXQShQDzjycf4EHo-1" value="" style="ellipse;html=1;shape=startState;fillColor=#000000;strokeColor=#080000;" parent="1" vertex="1">
          <mxGeometry x="88.56" y="40" width="30" height="30" as="geometry" />
        </mxCell>
        <mxCell id="urpMWXQShQDzjycf4EHo-2" value="" style="edgeStyle=orthogonalEdgeStyle;html=1;verticalAlign=bottom;endArrow=open;endSize=8;strokeColor=#050000;rounded=0;entryX=0.5;entryY=0;entryDx=0;entryDy=0;" parent="1" source="urpMWXQShQDzjycf4EHo-1" target="urpMWXQShQDzjycf4EHo-3" edge="1">
          <mxGeometry relative="1" as="geometry">
            <mxPoint x="103.56" y="110" as="targetPoint" />
          </mxGeometry>
        </mxCell>
        <mxCell id="urpMWXQShQDzjycf4EHo-5" value="" style="edgeStyle=orthogonalEdgeStyle;rounded=0;orthogonalLoop=1;jettySize=auto;html=1;" parent="1" source="urpMWXQShQDzjycf4EHo-3" target="urpMWXQShQDzjycf4EHo-4" edge="1">
          <mxGeometry relative="1" as="geometry">
            <Array as="points">
              <mxPoint x="103.56" y="170" />
              <mxPoint x="103.56" y="170" />
            </Array>
          </mxGeometry>
        </mxCell>
        <mxCell id="urpMWXQShQDzjycf4EHo-3" value="Feature is requested&amp;nbsp;" style="rounded=1;whiteSpace=wrap;html=1;" parent="1" vertex="1">
          <mxGeometry x="58.56" y="100" width="90" height="40" as="geometry" />
        </mxCell>
        <mxCell id="urpMWXQShQDzjycf4EHo-4" value="Issue is created&amp;nbsp;" style="whiteSpace=wrap;html=1;rounded=1;" parent="1" vertex="1">
          <mxGeometry x="56.69" y="160" width="93.75" height="40" as="geometry" />
        </mxCell>
        <mxCell id="urpMWXQShQDzjycf4EHo-15" value="Leave on &quot;&lt;i&gt;To-Do&quot;&lt;/i&gt;&amp;nbsp;" style="whiteSpace=wrap;html=1;rounded=1;" parent="1" vertex="1">
          <mxGeometry x="29" y="373" width="120" height="40" as="geometry" />
        </mxCell>
        <mxCell id="urpMWXQShQDzjycf4EHo-25" value="" style="edgeStyle=orthogonalEdgeStyle;rounded=0;orthogonalLoop=1;jettySize=auto;html=1;" parent="1" source="urpMWXQShQDzjycf4EHo-20" target="urpMWXQShQDzjycf4EHo-24" edge="1">
          <mxGeometry relative="1" as="geometry" />
        </mxCell>
        <mxCell id="urpMWXQShQDzjycf4EHo-20" value="Move to&lt;i&gt;&amp;nbsp;&quot;In progress&quot;&lt;/i&gt;" style="whiteSpace=wrap;html=1;rounded=1;" parent="1" vertex="1">
          <mxGeometry x="299.62" y="263" width="127.5" height="35" as="geometry" />
        </mxCell>
        <mxCell id="urpMWXQShQDzjycf4EHo-31" value="" style="edgeStyle=orthogonalEdgeStyle;rounded=0;orthogonalLoop=1;jettySize=auto;html=1;" parent="1" source="urpMWXQShQDzjycf4EHo-24" target="urpMWXQShQDzjycf4EHo-30" edge="1">
          <mxGeometry relative="1" as="geometry" />
        </mxCell>
        <mxCell id="urpMWXQShQDzjycf4EHo-24" value="Assign team member(s)&amp;nbsp;" style="whiteSpace=wrap;html=1;rounded=1;" parent="1" vertex="1">
          <mxGeometry x="187.12" y="353" width="120" height="37.5" as="geometry" />
        </mxCell>
        <mxCell id="urpMWXQShQDzjycf4EHo-33" value="" style="edgeStyle=orthogonalEdgeStyle;rounded=0;orthogonalLoop=1;jettySize=auto;html=1;exitX=0;exitY=1;exitDx=0;exitDy=0;entryX=0.5;entryY=0;entryDx=0;entryDy=0;" parent="1" target="urpMWXQShQDzjycf4EHo-32" edge="1">
          <mxGeometry relative="1" as="geometry">
            <mxPoint x="369.31" y="373" as="sourcePoint" />
            <mxPoint x="210.26000000000005" y="413.51250000000005" as="targetPoint" />
            <Array as="points">
              <mxPoint x="429" y="373" />
              <mxPoint x="429" y="406" />
              <mxPoint x="189" y="406" />
            </Array>
          </mxGeometry>
        </mxCell>
        <mxCell id="urpMWXQShQDzjycf4EHo-30" value="Create new branch&amp;nbsp;" style="whiteSpace=wrap;html=1;rounded=1;" parent="1" vertex="1">
          <mxGeometry x="369" y="353" width="110" height="37.5" as="geometry" />
        </mxCell>
        <mxCell id="urpMWXQShQDzjycf4EHo-32" value="Work on issue" style="whiteSpace=wrap;html=1;rounded=1;" parent="1" vertex="1">
          <mxGeometry x="129.31" y="423" width="120" height="37.5" as="geometry" />
        </mxCell>
        <mxCell id="urpMWXQShQDzjycf4EHo-46" value="" style="edgeStyle=orthogonalEdgeStyle;rounded=0;orthogonalLoop=1;jettySize=auto;html=1;" parent="1" source="urpMWXQShQDzjycf4EHo-42" target="urpMWXQShQDzjycf4EHo-45" edge="1">
          <mxGeometry relative="1" as="geometry" />
        </mxCell>
        <mxCell id="urpMWXQShQDzjycf4EHo-42" value="Create test branch&amp;nbsp;" style="whiteSpace=wrap;html=1;rounded=1;" parent="1" vertex="1">
          <mxGeometry x="573.4399999999999" y="578" width="120" height="27.5" as="geometry" />
        </mxCell>
        <mxCell id="urpMWXQShQDzjycf4EHo-48" value="" style="edgeStyle=orthogonalEdgeStyle;rounded=0;orthogonalLoop=1;jettySize=auto;html=1;" parent="1" source="urpMWXQShQDzjycf4EHo-45" target="urpMWXQShQDzjycf4EHo-47" edge="1">
          <mxGeometry relative="1" as="geometry" />
        </mxCell>
        <mxCell id="urpMWXQShQDzjycf4EHo-45" value="Add tests" style="whiteSpace=wrap;html=1;rounded=1;" parent="1" vertex="1">
          <mxGeometry x="573.4399999999999" y="628" width="120" height="37.5" as="geometry" />
        </mxCell>
        <mxCell id="urpMWXQShQDzjycf4EHo-47" value="Merge test branch into issue branch&amp;nbsp;" style="whiteSpace=wrap;html=1;rounded=1;" parent="1" vertex="1">
          <mxGeometry x="573.4399999999999" y="698" width="120" height="37.5" as="geometry" />
        </mxCell>
        <mxCell id="urpMWXQShQDzjycf4EHo-130" style="edgeStyle=orthogonalEdgeStyle;rounded=0;orthogonalLoop=1;jettySize=auto;html=1;exitX=0.5;exitY=1;exitDx=0;exitDy=0;" parent="1" source="urpMWXQShQDzjycf4EHo-49" edge="1" target="urpMWXQShQDzjycf4EHo-135">
          <mxGeometry relative="1" as="geometry">
            <mxPoint x="343.43999999999994" y="765.5" as="targetPoint" />
          </mxGeometry>
        </mxCell>
        <mxCell id="urpMWXQShQDzjycf4EHo-49" value="GitHub Actions&lt;div&gt;&amp;nbsp;runs checks&lt;/div&gt;" style="whiteSpace=wrap;html=1;rounded=1;" parent="1" vertex="1">
          <mxGeometry x="283.44" y="712" width="120" height="40" as="geometry" />
        </mxCell>
        <mxCell id="urpMWXQShQDzjycf4EHo-60" value="" style="edgeStyle=orthogonalEdgeStyle;rounded=0;orthogonalLoop=1;jettySize=auto;html=1;exitX=0;exitY=0.5;exitDx=0;exitDy=0;" parent="1" source="8IZgMx02iicjBR52y0ET-4" target="urpMWXQShQDzjycf4EHo-59" edge="1">
          <mxGeometry relative="1" as="geometry">
            <mxPoint x="341.56000000000006" y="575.5" as="sourcePoint" />
          </mxGeometry>
        </mxCell>
        <mxCell id="urpMWXQShQDzjycf4EHo-71" value="&amp;nbsp;No&amp;nbsp;" style="edgeLabel;html=1;align=center;verticalAlign=middle;resizable=0;points=[];" parent="urpMWXQShQDzjycf4EHo-60" vertex="1" connectable="0">
          <mxGeometry x="-0.2974" y="-2" relative="1" as="geometry">
            <mxPoint as="offset" />
          </mxGeometry>
        </mxCell>
        <mxCell id="urpMWXQShQDzjycf4EHo-64" value="" style="edgeStyle=orthogonalEdgeStyle;rounded=0;orthogonalLoop=1;jettySize=auto;html=1;" parent="1" source="urpMWXQShQDzjycf4EHo-59" target="urpMWXQShQDzjycf4EHo-63" edge="1">
          <mxGeometry relative="1" as="geometry" />
        </mxCell>
        <mxCell id="urpMWXQShQDzjycf4EHo-59" value="Create pull request&amp;nbsp;" style="whiteSpace=wrap;html=1;rounded=1;" parent="1" vertex="1">
          <mxGeometry x="135.32" y="645.5" width="120" height="40" as="geometry" />
        </mxCell>
        <mxCell id="8IZgMx02iicjBR52y0ET-56" style="edgeStyle=orthogonalEdgeStyle;rounded=0;orthogonalLoop=1;jettySize=auto;html=1;" edge="1" parent="1" source="urpMWXQShQDzjycf4EHo-63" target="urpMWXQShQDzjycf4EHo-49">
          <mxGeometry relative="1" as="geometry">
            <Array as="points">
              <mxPoint x="343" y="700" />
              <mxPoint x="343" y="700" />
            </Array>
          </mxGeometry>
        </mxCell>
        <mxCell id="urpMWXQShQDzjycf4EHo-63" value="Assign reviewer" style="whiteSpace=wrap;html=1;rounded=1;" parent="1" vertex="1">
          <mxGeometry x="293.44" y="645.5" width="100" height="40" as="geometry" />
        </mxCell>
        <mxCell id="urpMWXQShQDzjycf4EHo-95" value="Yes" style="edgeStyle=orthogonalEdgeStyle;rounded=0;orthogonalLoop=1;jettySize=auto;html=1;" parent="1" source="urpMWXQShQDzjycf4EHo-135" target="urpMWXQShQDzjycf4EHo-94" edge="1">
          <mxGeometry x="-0.6319" relative="1" as="geometry">
            <mxPoint x="343.43999999999994" y="795.5" as="sourcePoint" />
            <Array as="points">
              <mxPoint x="343.13" y="845.5" />
              <mxPoint x="343.13" y="845.5" />
            </Array>
            <mxPoint as="offset" />
          </mxGeometry>
        </mxCell>
        <mxCell id="8IZgMx02iicjBR52y0ET-6" style="edgeStyle=orthogonalEdgeStyle;rounded=0;orthogonalLoop=1;jettySize=auto;html=1;entryX=0;entryY=0.5;entryDx=0;entryDy=0;" edge="1" parent="1" source="urpMWXQShQDzjycf4EHo-79" target="urpMWXQShQDzjycf4EHo-32">
          <mxGeometry relative="1" as="geometry">
            <Array as="points">
              <mxPoint x="109" y="720" />
              <mxPoint x="109" y="442" />
            </Array>
          </mxGeometry>
        </mxCell>
        <mxCell id="urpMWXQShQDzjycf4EHo-79" value="Reject pull request&amp;nbsp;" style="rounded=1;whiteSpace=wrap;html=1;" parent="1" vertex="1">
          <mxGeometry x="133.13" y="705.5" width="80" height="30" as="geometry" />
        </mxCell>
        <mxCell id="urpMWXQShQDzjycf4EHo-94" value="Reviewer checks code" style="whiteSpace=wrap;html=1;rounded=1;" parent="1" vertex="1">
          <mxGeometry x="282.44" y="865.5" width="120" height="30" as="geometry" />
        </mxCell>
        <mxCell id="8IZgMx02iicjBR52y0ET-29" style="edgeStyle=orthogonalEdgeStyle;rounded=0;orthogonalLoop=1;jettySize=auto;html=1;entryX=0;entryY=0.75;entryDx=0;entryDy=0;" edge="1" parent="1" source="urpMWXQShQDzjycf4EHo-104" target="urpMWXQShQDzjycf4EHo-107">
          <mxGeometry relative="1" as="geometry">
            <mxPoint x="551" y="863" as="targetPoint" />
          </mxGeometry>
        </mxCell>
        <mxCell id="urpMWXQShQDzjycf4EHo-104" value="Accept pull request&amp;nbsp;" style="whiteSpace=wrap;html=1;rounded=1;" parent="1" vertex="1">
          <mxGeometry x="473.43999999999994" y="925.5" width="100" height="30" as="geometry" />
        </mxCell>
        <mxCell id="urpMWXQShQDzjycf4EHo-110" value="Yes" style="edgeStyle=orthogonalEdgeStyle;rounded=0;orthogonalLoop=1;jettySize=auto;html=1;" parent="1" target="urpMWXQShQDzjycf4EHo-109" edge="1">
          <mxGeometry x="0.0072" relative="1" as="geometry">
            <Array as="points">
              <mxPoint x="611" y="990" />
              <mxPoint x="611" y="990" />
            </Array>
            <mxPoint x="611.0578034682085" y="990.5294117647061" as="sourcePoint" />
            <mxPoint as="offset" />
          </mxGeometry>
        </mxCell>
        <mxCell id="8IZgMx02iicjBR52y0ET-27" style="edgeStyle=orthogonalEdgeStyle;rounded=0;orthogonalLoop=1;jettySize=auto;html=1;entryX=0.5;entryY=0;entryDx=0;entryDy=0;" edge="1" parent="1" source="urpMWXQShQDzjycf4EHo-107">
          <mxGeometry relative="1" as="geometry">
            <mxPoint x="696" y="947.25" as="targetPoint" />
          </mxGeometry>
        </mxCell>
        <mxCell id="urpMWXQShQDzjycf4EHo-107" value="Merge to main branch" style="whiteSpace=wrap;html=1;rounded=1;" parent="1" vertex="1">
          <mxGeometry x="646" y="853" width="100" height="30" as="geometry" />
        </mxCell>
        <mxCell id="urpMWXQShQDzjycf4EHo-112" value="" style="edgeStyle=orthogonalEdgeStyle;rounded=0;orthogonalLoop=1;jettySize=auto;html=1;" parent="1" source="urpMWXQShQDzjycf4EHo-109" target="urpMWXQShQDzjycf4EHo-111" edge="1">
          <mxGeometry relative="1" as="geometry">
            <Array as="points">
              <mxPoint x="403.13" y="990.5" />
              <mxPoint x="403.13" y="990.5" />
            </Array>
          </mxGeometry>
        </mxCell>
        <mxCell id="urpMWXQShQDzjycf4EHo-115" value="" style="edgeStyle=orthogonalEdgeStyle;rounded=0;orthogonalLoop=1;jettySize=auto;html=1;" parent="1" source="urpMWXQShQDzjycf4EHo-109" target="urpMWXQShQDzjycf4EHo-114" edge="1">
          <mxGeometry relative="1" as="geometry">
            <Array as="points">
              <mxPoint x="483.43999999999994" y="1065.5" />
            </Array>
          </mxGeometry>
        </mxCell>
        <mxCell id="urpMWXQShQDzjycf4EHo-117" value="Has version&lt;div&gt;&amp;nbsp;number?&lt;/div&gt;" style="edgeLabel;html=1;align=center;verticalAlign=middle;resizable=0;points=[];" parent="urpMWXQShQDzjycf4EHo-115" vertex="1" connectable="0">
          <mxGeometry x="-0.7605" y="-1" relative="1" as="geometry">
            <mxPoint x="-1" y="18" as="offset" />
          </mxGeometry>
        </mxCell>
        <mxCell id="urpMWXQShQDzjycf4EHo-109" value="Run workflow checks" style="whiteSpace=wrap;html=1;rounded=1;" parent="1" vertex="1">
          <mxGeometry x="433.44" y="975.5" width="100" height="30" as="geometry" />
        </mxCell>
        <mxCell id="urpMWXQShQDzjycf4EHo-123" value="" style="edgeStyle=orthogonalEdgeStyle;rounded=0;orthogonalLoop=1;jettySize=auto;html=1;" parent="1" source="urpMWXQShQDzjycf4EHo-111" target="urpMWXQShQDzjycf4EHo-122" edge="1">
          <mxGeometry relative="1" as="geometry" />
        </mxCell>
        <mxCell id="urpMWXQShQDzjycf4EHo-111" value="Deploy to Azure&amp;nbsp;" style="whiteSpace=wrap;html=1;rounded=1;" parent="1" vertex="1">
          <mxGeometry x="255.32" y="975.5" width="100" height="30" as="geometry" />
        </mxCell>
        <mxCell id="urpMWXQShQDzjycf4EHo-116" style="edgeStyle=orthogonalEdgeStyle;rounded=0;orthogonalLoop=1;jettySize=auto;html=1;entryX=0.5;entryY=1;entryDx=0;entryDy=0;" parent="1" source="urpMWXQShQDzjycf4EHo-114" target="urpMWXQShQDzjycf4EHo-111" edge="1">
          <mxGeometry relative="1" as="geometry">
            <Array as="points">
              <mxPoint x="305.13" y="1065.5" />
            </Array>
          </mxGeometry>
        </mxCell>
        <mxCell id="urpMWXQShQDzjycf4EHo-114" value="Create release&amp;nbsp;" style="whiteSpace=wrap;html=1;rounded=1;" parent="1" vertex="1">
          <mxGeometry x="333.13" y="1055.5" width="100" height="30" as="geometry" />
        </mxCell>
        <mxCell id="urpMWXQShQDzjycf4EHo-118" value="" style="ellipse;html=1;shape=endState;fillColor=#000000;strokeColor=#030000;" parent="1" vertex="1">
          <mxGeometry x="41.25999999999999" y="975.5" width="30" height="30" as="geometry" />
        </mxCell>
        <mxCell id="urpMWXQShQDzjycf4EHo-124" style="edgeStyle=orthogonalEdgeStyle;rounded=0;orthogonalLoop=1;jettySize=auto;html=1;entryX=1;entryY=0.5;entryDx=0;entryDy=0;" parent="1" source="urpMWXQShQDzjycf4EHo-122" target="urpMWXQShQDzjycf4EHo-118" edge="1">
          <mxGeometry relative="1" as="geometry" />
        </mxCell>
        <mxCell id="urpMWXQShQDzjycf4EHo-122" value="Close issue&lt;div&gt;move to &lt;i&gt;done&lt;/i&gt;&amp;nbsp;&lt;/div&gt;" style="whiteSpace=wrap;html=1;rounded=1;" parent="1" vertex="1">
          <mxGeometry x="113.44" y="975.5" width="100" height="30" as="geometry" />
        </mxCell>
        <mxCell id="8IZgMx02iicjBR52y0ET-12" style="edgeStyle=orthogonalEdgeStyle;rounded=0;orthogonalLoop=1;jettySize=auto;html=1;entryX=0.5;entryY=1;entryDx=0;entryDy=0;exitX=0;exitY=0.5;exitDx=0;exitDy=0;" edge="1" parent="1" source="8IZgMx02iicjBR52y0ET-61" target="urpMWXQShQDzjycf4EHo-32">
          <mxGeometry relative="1" as="geometry">
            <mxPoint x="337.9725000000001" y="500.875" as="sourcePoint" />
            <mxPoint x="150.48000000000002" y="461" as="targetPoint" />
            <Array as="points">
              <mxPoint x="189" y="480" />
            </Array>
          </mxGeometry>
        </mxCell>
        <mxCell id="8IZgMx02iicjBR52y0ET-26" value="No" style="edgeLabel;html=1;align=center;verticalAlign=middle;resizable=0;points=[];" vertex="1" connectable="0" parent="8IZgMx02iicjBR52y0ET-12">
          <mxGeometry x="-0.051" y="3" relative="1" as="geometry">
            <mxPoint x="17" y="-2" as="offset" />
          </mxGeometry>
        </mxCell>
        <mxCell id="urpMWXQShQDzjycf4EHo-136" value="" style="edgeStyle=orthogonalEdgeStyle;rounded=0;orthogonalLoop=1;jettySize=auto;html=1;" parent="1" target="urpMWXQShQDzjycf4EHo-135" edge="1">
          <mxGeometry relative="1" as="geometry">
            <mxPoint x="343.43999999999994" y="795.5" as="sourcePoint" />
            <mxPoint x="343.13" y="855.5" as="targetPoint" />
          </mxGeometry>
        </mxCell>
        <mxCell id="urpMWXQShQDzjycf4EHo-135" value="Pass?" style="rhombus;whiteSpace=wrap;html=1;" parent="1" vertex="1">
          <mxGeometry x="312.34" y="772.75" width="62.19" height="56" as="geometry" />
        </mxCell>
        <mxCell id="urpMWXQShQDzjycf4EHo-137" style="edgeStyle=orthogonalEdgeStyle;rounded=0;orthogonalLoop=1;jettySize=auto;html=1;entryX=0.67;entryY=1.048;entryDx=0;entryDy=0;entryPerimeter=0;" parent="1" source="urpMWXQShQDzjycf4EHo-135" target="urpMWXQShQDzjycf4EHo-79" edge="1">
          <mxGeometry relative="1" as="geometry" />
        </mxCell>
        <mxCell id="8IZgMx02iicjBR52y0ET-5" value="No" style="edgeLabel;html=1;align=center;verticalAlign=middle;resizable=0;points=[];" vertex="1" connectable="0" parent="urpMWXQShQDzjycf4EHo-137">
          <mxGeometry x="-0.5434" y="1" relative="1" as="geometry">
            <mxPoint as="offset" />
          </mxGeometry>
        </mxCell>
        <mxCell id="8IZgMx02iicjBR52y0ET-30" style="edgeStyle=orthogonalEdgeStyle;rounded=0;orthogonalLoop=1;jettySize=auto;html=1;entryX=0.25;entryY=1;entryDx=0;entryDy=0;" edge="1" parent="1" source="urpMWXQShQDzjycf4EHo-138" target="urpMWXQShQDzjycf4EHo-79">
          <mxGeometry relative="1" as="geometry" />
        </mxCell>
        <mxCell id="8IZgMx02iicjBR52y0ET-32" value="No" style="edgeLabel;html=1;align=center;verticalAlign=middle;resizable=0;points=[];" vertex="1" connectable="0" parent="8IZgMx02iicjBR52y0ET-30">
          <mxGeometry x="-0.7337" y="-1" relative="1" as="geometry">
            <mxPoint y="1" as="offset" />
          </mxGeometry>
        </mxCell>
        <mxCell id="8IZgMx02iicjBR52y0ET-31" style="edgeStyle=orthogonalEdgeStyle;rounded=0;orthogonalLoop=1;jettySize=auto;html=1;entryX=0;entryY=0.5;entryDx=0;entryDy=0;" edge="1" parent="1" source="urpMWXQShQDzjycf4EHo-138" target="urpMWXQShQDzjycf4EHo-104">
          <mxGeometry relative="1" as="geometry" />
        </mxCell>
        <mxCell id="8IZgMx02iicjBR52y0ET-33" value="Yes" style="edgeLabel;html=1;align=center;verticalAlign=middle;resizable=0;points=[];" vertex="1" connectable="0" parent="8IZgMx02iicjBR52y0ET-31">
          <mxGeometry x="-0.1778" y="-3" relative="1" as="geometry">
            <mxPoint x="3" y="-3" as="offset" />
          </mxGeometry>
        </mxCell>
        <mxCell id="urpMWXQShQDzjycf4EHo-138" value="Looks good?" style="rhombus;whiteSpace=wrap;html=1;" parent="1" vertex="1">
          <mxGeometry x="286.44" y="915.5" width="110" height="50" as="geometry" />
        </mxCell>
        <mxCell id="8IZgMx02iicjBR52y0ET-48" style="edgeStyle=orthogonalEdgeStyle;rounded=0;orthogonalLoop=1;jettySize=auto;html=1;entryX=0;entryY=0.5;entryDx=0;entryDy=0;" edge="1" parent="1" source="8IZgMx02iicjBR52y0ET-2" target="urpMWXQShQDzjycf4EHo-20">
          <mxGeometry relative="1" as="geometry" />
        </mxCell>
        <mxCell id="8IZgMx02iicjBR52y0ET-49" value="Yes" style="edgeLabel;html=1;align=center;verticalAlign=middle;resizable=0;points=[];" vertex="1" connectable="0" parent="8IZgMx02iicjBR52y0ET-48">
          <mxGeometry x="-0.1472" y="-2" relative="1" as="geometry">
            <mxPoint x="-5" y="-2" as="offset" />
          </mxGeometry>
        </mxCell>
        <mxCell id="8IZgMx02iicjBR52y0ET-2" value="App ready for extension?&amp;nbsp;" style="rhombus;whiteSpace=wrap;html=1;" vertex="1" parent="1">
          <mxGeometry x="50" y="240" width="107.13" height="80.5" as="geometry" />
        </mxCell>
        <mxCell id="8IZgMx02iicjBR52y0ET-35" style="edgeStyle=orthogonalEdgeStyle;rounded=0;orthogonalLoop=1;jettySize=auto;html=1;" edge="1" parent="1" source="8IZgMx02iicjBR52y0ET-4">
          <mxGeometry relative="1" as="geometry">
            <mxPoint x="571" y="588" as="targetPoint" />
          </mxGeometry>
        </mxCell>
        <mxCell id="8IZgMx02iicjBR52y0ET-36" value="Yes" style="edgeLabel;html=1;align=center;verticalAlign=middle;resizable=0;points=[];" vertex="1" connectable="0" parent="8IZgMx02iicjBR52y0ET-35">
          <mxGeometry x="-0.3961" y="1" relative="1" as="geometry">
            <mxPoint as="offset" />
          </mxGeometry>
        </mxCell>
        <mxCell id="8IZgMx02iicjBR52y0ET-4" value="Create new tests&amp;nbsp;&lt;div&gt;before merge?&lt;/div&gt;" style="rhombus;whiteSpace=wrap;html=1;" vertex="1" parent="1">
          <mxGeometry x="306.15" y="548" width="140" height="80" as="geometry" />
        </mxCell>
        <mxCell id="8IZgMx02iicjBR52y0ET-7" value="&lt;span style=&quot;font-size: 11px; white-space: nowrap; background-color: rgb(255, 255, 255);&quot;&gt;Does not have test yet?&lt;/span&gt;" style="rhombus;whiteSpace=wrap;html=1;" vertex="1" parent="1">
          <mxGeometry x="611.0000000000001" y="947.25" width="170" height="86.5" as="geometry" />
        </mxCell>
        <mxCell id="8IZgMx02iicjBR52y0ET-41" value="" style="endArrow=classic;html=1;rounded=0;entryX=0.75;entryY=0;entryDx=0;entryDy=0;exitX=0;exitY=0.5;exitDx=0;exitDy=0;" edge="1" parent="1" source="urpMWXQShQDzjycf4EHo-47" target="urpMWXQShQDzjycf4EHo-59">
          <mxGeometry width="50" height="50" relative="1" as="geometry">
            <mxPoint x="431" y="803" as="sourcePoint" />
            <mxPoint x="481" y="753" as="targetPoint" />
            <Array as="points">
              <mxPoint x="461" y="717" />
              <mxPoint x="461" y="633" />
              <mxPoint x="225" y="633" />
            </Array>
          </mxGeometry>
        </mxCell>
        <mxCell id="8IZgMx02iicjBR52y0ET-46" value="" style="endArrow=classic;html=1;rounded=0;exitX=0.5;exitY=1;exitDx=0;exitDy=0;entryX=0.5;entryY=0;entryDx=0;entryDy=0;" edge="1" parent="1" source="urpMWXQShQDzjycf4EHo-4" target="8IZgMx02iicjBR52y0ET-2">
          <mxGeometry width="50" height="50" relative="1" as="geometry">
            <mxPoint x="160" y="310" as="sourcePoint" />
            <mxPoint x="210" y="260" as="targetPoint" />
          </mxGeometry>
        </mxCell>
        <mxCell id="8IZgMx02iicjBR52y0ET-50" value="" style="endArrow=classic;html=1;rounded=0;entryX=0.617;entryY=0.028;entryDx=0;entryDy=0;exitX=0.5;exitY=1;exitDx=0;exitDy=0;entryPerimeter=0;" edge="1" parent="1" source="8IZgMx02iicjBR52y0ET-2" target="urpMWXQShQDzjycf4EHo-15">
          <mxGeometry width="50" height="50" relative="1" as="geometry">
            <mxPoint x="240" y="370" as="sourcePoint" />
            <mxPoint x="290" y="320" as="targetPoint" />
          </mxGeometry>
        </mxCell>
        <mxCell id="8IZgMx02iicjBR52y0ET-53" value="No" style="edgeLabel;html=1;align=center;verticalAlign=middle;resizable=0;points=[];" vertex="1" connectable="0" parent="8IZgMx02iicjBR52y0ET-50">
          <mxGeometry x="-0.3887" y="1" relative="1" as="geometry">
            <mxPoint as="offset" />
          </mxGeometry>
        </mxCell>
        <mxCell id="8IZgMx02iicjBR52y0ET-52" value="" style="endArrow=classic;html=1;rounded=0;exitX=0;exitY=0.5;exitDx=0;exitDy=0;entryX=0;entryY=0.5;entryDx=0;entryDy=0;" edge="1" parent="1" source="urpMWXQShQDzjycf4EHo-15" target="8IZgMx02iicjBR52y0ET-2">
          <mxGeometry width="50" height="50" relative="1" as="geometry">
            <mxPoint x="240" y="370" as="sourcePoint" />
            <mxPoint x="290" y="320" as="targetPoint" />
            <Array as="points">
              <mxPoint x="20" y="393" />
              <mxPoint x="20" y="280" />
            </Array>
          </mxGeometry>
        </mxCell>
        <mxCell id="8IZgMx02iicjBR52y0ET-54" value="" style="endArrow=classic;html=1;rounded=0;exitX=1;exitY=0.5;exitDx=0;exitDy=0;entryX=1;entryY=0.5;entryDx=0;entryDy=0;" edge="1" parent="1" source="8IZgMx02iicjBR52y0ET-7" target="urpMWXQShQDzjycf4EHo-42">
          <mxGeometry width="50" height="50" relative="1" as="geometry">
            <mxPoint x="790" y="802" as="sourcePoint" />
            <mxPoint x="840" y="752" as="targetPoint" />
            <Array as="points">
              <mxPoint x="780" y="592" />
            </Array>
          </mxGeometry>
        </mxCell>
        <mxCell id="8IZgMx02iicjBR52y0ET-58" value="" style="endArrow=classic;html=1;rounded=0;exitX=0.5;exitY=1;exitDx=0;exitDy=0;entryX=0.5;entryY=0;entryDx=0;entryDy=0;" edge="1" parent="1" source="8IZgMx02iicjBR52y0ET-61" target="8IZgMx02iicjBR52y0ET-4">
          <mxGeometry width="50" height="50" relative="1" as="geometry">
            <mxPoint x="377.59500000000025" y="513" as="sourcePoint" />
            <mxPoint x="360" y="520" as="targetPoint" />
          </mxGeometry>
        </mxCell>
        <mxCell id="8IZgMx02iicjBR52y0ET-59" value="Yes" style="edgeLabel;html=1;align=center;verticalAlign=middle;resizable=0;points=[];" vertex="1" connectable="0" parent="8IZgMx02iicjBR52y0ET-58">
          <mxGeometry x="-0.0702" relative="1" as="geometry">
            <mxPoint y="-3" as="offset" />
          </mxGeometry>
        </mxCell>
        <mxCell id="8IZgMx02iicjBR52y0ET-61" value="Acceptance&lt;div&gt;&amp;nbsp; criteria fulfilled&amp;nbsp;&lt;/div&gt;" style="rhombus;whiteSpace=wrap;html=1;" vertex="1" parent="1">
          <mxGeometry x="317.45" y="440" width="117.41" height="80.5" as="geometry" />
        </mxCell>
        <mxCell id="8IZgMx02iicjBR52y0ET-62" value="" style="endArrow=classic;html=1;rounded=0;entryX=0.5;entryY=0;entryDx=0;entryDy=0;endSize=6;" edge="1" parent="1" target="8IZgMx02iicjBR52y0ET-61">
          <mxGeometry width="50" height="50" relative="1" as="geometry">
            <mxPoint x="250" y="430" as="sourcePoint" />
            <mxPoint x="380" y="430" as="targetPoint" />
            <Array as="points">
              <mxPoint x="376" y="430" />
            </Array>
          </mxGeometry>
        </mxCell>
        <mxCell id="8IZgMx02iicjBR52y0ET-64" value="" style="endArrow=classic;html=1;rounded=0;exitX=0.5;exitY=1;exitDx=0;exitDy=0;entryX=0.5;entryY=0;entryDx=0;entryDy=0;" edge="1" parent="1" source="urpMWXQShQDzjycf4EHo-94">
          <mxGeometry width="50" height="50" relative="1" as="geometry">
            <mxPoint x="361" y="880" as="sourcePoint" />
            <mxPoint x="342.44000000000005" y="915.5" as="targetPoint" />
          </mxGeometry>
        </mxCell>
      </root>
    </mxGraphModel>
  </diagram>
</mxfile>
